<mxfile host="app.diagrams.net" modified="2021-06-19T14:17:32.313Z" agent="5.0 (Windows NT 10.0; Win64; x64) AppleWebKit/537.36 (KHTML, like Gecko) Chrome/90.0.4430.212 Safari/537.36" etag="8nLnxsaH8ty2cPTL6cR8" version="14.8.0" type="github">
  <diagram id="R2lEEEUBdFMjLlhIrx00" name="Page-1">
    <mxGraphModel dx="1587" dy="1867" grid="1" gridSize="10" guides="1" tooltips="1" connect="1" arrows="1" fold="1" page="1" pageScale="1" pageWidth="850" pageHeight="1100" background="#ffffff" math="0" shadow="0" extFonts="Permanent Marker^https://fonts.googleapis.com/css?family=Permanent+Marker">
      <root>
        <mxCell id="0" />
        <mxCell id="1" parent="0" />
        <mxCell id="C-vyLk0tnHw3VtMMgP7b-1" value="" style="edgeStyle=entityRelationEdgeStyle;endArrow=ERzeroToMany;startArrow=ERone;endFill=1;startFill=0;" parent="1" target="C-vyLk0tnHw3VtMMgP7b-6" edge="1">
          <mxGeometry width="100" height="100" relative="1" as="geometry">
            <mxPoint x="410" y="-5" as="sourcePoint" />
            <mxPoint x="560" y="480" as="targetPoint" />
          </mxGeometry>
        </mxCell>
        <mxCell id="C-vyLk0tnHw3VtMMgP7b-12" value="" style="edgeStyle=entityRelationEdgeStyle;endArrow=ERzeroToMany;startArrow=ERone;endFill=1;startFill=0;" parent="1" source="C-vyLk0tnHw3VtMMgP7b-3" target="C-vyLk0tnHw3VtMMgP7b-17" edge="1">
          <mxGeometry width="100" height="100" relative="1" as="geometry">
            <mxPoint x="520" y="40" as="sourcePoint" />
            <mxPoint x="580" y="65" as="targetPoint" />
          </mxGeometry>
        </mxCell>
        <mxCell id="C-vyLk0tnHw3VtMMgP7b-2" value="Orders" style="shape=table;startSize=30;container=1;collapsible=1;childLayout=tableLayout;fixedRows=1;rowLines=0;fontStyle=1;align=center;resizeLast=1;" parent="1" vertex="1">
          <mxGeometry x="580" y="-20" width="250" height="130" as="geometry" />
        </mxCell>
        <mxCell id="C-vyLk0tnHw3VtMMgP7b-3" value="" style="shape=partialRectangle;collapsible=0;dropTarget=0;pointerEvents=0;fillColor=none;points=[[0,0.5],[1,0.5]];portConstraint=eastwest;top=0;left=0;right=0;bottom=1;" parent="C-vyLk0tnHw3VtMMgP7b-2" vertex="1">
          <mxGeometry y="30" width="250" height="30" as="geometry" />
        </mxCell>
        <mxCell id="C-vyLk0tnHw3VtMMgP7b-4" value="PK" style="shape=partialRectangle;overflow=hidden;connectable=0;fillColor=none;top=0;left=0;bottom=0;right=0;fontStyle=1;" parent="C-vyLk0tnHw3VtMMgP7b-3" vertex="1">
          <mxGeometry width="140" height="30" as="geometry" />
        </mxCell>
        <mxCell id="C-vyLk0tnHw3VtMMgP7b-5" value="order_id int NOT NULL " style="shape=partialRectangle;overflow=hidden;connectable=0;fillColor=none;top=0;left=0;bottom=0;right=0;align=left;spacingLeft=6;fontStyle=5;" parent="C-vyLk0tnHw3VtMMgP7b-3" vertex="1">
          <mxGeometry x="140" width="110" height="30" as="geometry" />
        </mxCell>
        <mxCell id="C-vyLk0tnHw3VtMMgP7b-6" value="" style="shape=partialRectangle;collapsible=0;dropTarget=0;pointerEvents=0;fillColor=none;points=[[0,0.5],[1,0.5]];portConstraint=eastwest;top=0;left=0;right=0;bottom=0;" parent="C-vyLk0tnHw3VtMMgP7b-2" vertex="1">
          <mxGeometry y="60" width="250" height="30" as="geometry" />
        </mxCell>
        <mxCell id="C-vyLk0tnHw3VtMMgP7b-7" value="FK1" style="shape=partialRectangle;overflow=hidden;connectable=0;fillColor=none;top=0;left=0;bottom=0;right=0;" parent="C-vyLk0tnHw3VtMMgP7b-6" vertex="1">
          <mxGeometry width="140" height="30" as="geometry" />
        </mxCell>
        <mxCell id="C-vyLk0tnHw3VtMMgP7b-8" value="customer_id int NOT NULL" style="shape=partialRectangle;overflow=hidden;connectable=0;fillColor=none;top=0;left=0;bottom=0;right=0;align=left;spacingLeft=6;" parent="C-vyLk0tnHw3VtMMgP7b-6" vertex="1">
          <mxGeometry x="140" width="110" height="30" as="geometry" />
        </mxCell>
        <mxCell id="C-vyLk0tnHw3VtMMgP7b-9" value="" style="shape=partialRectangle;collapsible=0;dropTarget=0;pointerEvents=0;fillColor=none;points=[[0,0.5],[1,0.5]];portConstraint=eastwest;top=0;left=0;right=0;bottom=0;" parent="C-vyLk0tnHw3VtMMgP7b-2" vertex="1">
          <mxGeometry y="90" width="250" height="30" as="geometry" />
        </mxCell>
        <mxCell id="C-vyLk0tnHw3VtMMgP7b-10" value="" style="shape=partialRectangle;overflow=hidden;connectable=0;fillColor=none;top=0;left=0;bottom=0;right=0;" parent="C-vyLk0tnHw3VtMMgP7b-9" vertex="1">
          <mxGeometry width="140" height="30" as="geometry" />
        </mxCell>
        <mxCell id="C-vyLk0tnHw3VtMMgP7b-11" value="order_date date NOT NULL" style="shape=partialRectangle;overflow=hidden;connectable=0;fillColor=none;top=0;left=0;bottom=0;right=0;align=left;spacingLeft=6;" parent="C-vyLk0tnHw3VtMMgP7b-9" vertex="1">
          <mxGeometry x="140" width="110" height="30" as="geometry" />
        </mxCell>
        <mxCell id="C-vyLk0tnHw3VtMMgP7b-13" value="Shipments" style="shape=table;startSize=30;container=1;collapsible=1;childLayout=tableLayout;fixedRows=1;rowLines=0;fontStyle=1;align=center;resizeLast=1;" parent="1" vertex="1">
          <mxGeometry x="580" y="140" width="250" height="130" as="geometry" />
        </mxCell>
        <mxCell id="C-vyLk0tnHw3VtMMgP7b-14" value="" style="shape=partialRectangle;collapsible=0;dropTarget=0;pointerEvents=0;fillColor=none;points=[[0,0.5],[1,0.5]];portConstraint=eastwest;top=0;left=0;right=0;bottom=1;" parent="C-vyLk0tnHw3VtMMgP7b-13" vertex="1">
          <mxGeometry y="30" width="250" height="30" as="geometry" />
        </mxCell>
        <mxCell id="C-vyLk0tnHw3VtMMgP7b-15" value="PK" style="shape=partialRectangle;overflow=hidden;connectable=0;fillColor=none;top=0;left=0;bottom=0;right=0;fontStyle=1;" parent="C-vyLk0tnHw3VtMMgP7b-14" vertex="1">
          <mxGeometry width="30" height="30" as="geometry" />
        </mxCell>
        <mxCell id="C-vyLk0tnHw3VtMMgP7b-16" value="shipment_id int NOT NULL " style="shape=partialRectangle;overflow=hidden;connectable=0;fillColor=none;top=0;left=0;bottom=0;right=0;align=left;spacingLeft=6;fontStyle=5;" parent="C-vyLk0tnHw3VtMMgP7b-14" vertex="1">
          <mxGeometry x="30" width="220" height="30" as="geometry" />
        </mxCell>
        <mxCell id="C-vyLk0tnHw3VtMMgP7b-17" value="" style="shape=partialRectangle;collapsible=0;dropTarget=0;pointerEvents=0;fillColor=none;points=[[0,0.5],[1,0.5]];portConstraint=eastwest;top=0;left=0;right=0;bottom=0;" parent="C-vyLk0tnHw3VtMMgP7b-13" vertex="1">
          <mxGeometry y="60" width="250" height="30" as="geometry" />
        </mxCell>
        <mxCell id="C-vyLk0tnHw3VtMMgP7b-18" value="FK1" style="shape=partialRectangle;overflow=hidden;connectable=0;fillColor=none;top=0;left=0;bottom=0;right=0;" parent="C-vyLk0tnHw3VtMMgP7b-17" vertex="1">
          <mxGeometry width="30" height="30" as="geometry" />
        </mxCell>
        <mxCell id="C-vyLk0tnHw3VtMMgP7b-19" value="order_id int NOT NULL" style="shape=partialRectangle;overflow=hidden;connectable=0;fillColor=none;top=0;left=0;bottom=0;right=0;align=left;spacingLeft=6;" parent="C-vyLk0tnHw3VtMMgP7b-17" vertex="1">
          <mxGeometry x="30" width="220" height="30" as="geometry" />
        </mxCell>
        <mxCell id="C-vyLk0tnHw3VtMMgP7b-20" value="" style="shape=partialRectangle;collapsible=0;dropTarget=0;pointerEvents=0;fillColor=none;points=[[0,0.5],[1,0.5]];portConstraint=eastwest;top=0;left=0;right=0;bottom=0;" parent="C-vyLk0tnHw3VtMMgP7b-13" vertex="1">
          <mxGeometry y="90" width="250" height="30" as="geometry" />
        </mxCell>
        <mxCell id="C-vyLk0tnHw3VtMMgP7b-21" value="" style="shape=partialRectangle;overflow=hidden;connectable=0;fillColor=none;top=0;left=0;bottom=0;right=0;" parent="C-vyLk0tnHw3VtMMgP7b-20" vertex="1">
          <mxGeometry width="30" height="30" as="geometry" />
        </mxCell>
        <mxCell id="C-vyLk0tnHw3VtMMgP7b-22" value="shipment_date date NOT NULL" style="shape=partialRectangle;overflow=hidden;connectable=0;fillColor=none;top=0;left=0;bottom=0;right=0;align=left;spacingLeft=6;" parent="C-vyLk0tnHw3VtMMgP7b-20" vertex="1">
          <mxGeometry x="30" width="220" height="30" as="geometry" />
        </mxCell>
        <mxCell id="5bifRWw4cxV1zEUzVgnK-14" style="edgeStyle=none;rounded=0;orthogonalLoop=1;jettySize=auto;html=1;exitX=0.5;exitY=0;exitDx=0;exitDy=0;endArrow=none;endFill=0;" edge="1" parent="1" source="5bifRWw4cxV1zEUzVgnK-1" target="5bifRWw4cxV1zEUzVgnK-7">
          <mxGeometry relative="1" as="geometry" />
        </mxCell>
        <mxCell id="5bifRWw4cxV1zEUzVgnK-1" value="&lt;span style=&quot;color: rgb(50, 50, 50); font-family: verdana; font-size: 15px; background-color: rgba(255, 255, 255, 0.01);&quot;&gt;PHD_STUDENT&lt;/span&gt;" style="rounded=0;whiteSpace=wrap;html=1;fontStyle=0" vertex="1" parent="1">
          <mxGeometry x="-45" y="410" width="130" height="40" as="geometry" />
        </mxCell>
        <mxCell id="5bifRWw4cxV1zEUzVgnK-13" style="edgeStyle=none;rounded=0;orthogonalLoop=1;jettySize=auto;html=1;entryX=0.5;entryY=1;entryDx=0;entryDy=0;endArrow=none;endFill=0;startArrow=none;" edge="1" parent="1" source="5bifRWw4cxV1zEUzVgnK-30" target="5bifRWw4cxV1zEUzVgnK-1">
          <mxGeometry relative="1" as="geometry" />
        </mxCell>
        <mxCell id="5bifRWw4cxV1zEUzVgnK-35" style="edgeStyle=none;rounded=0;orthogonalLoop=1;jettySize=auto;html=1;exitX=0;exitY=1;exitDx=0;exitDy=0;entryX=0.5;entryY=0;entryDx=0;entryDy=0;endArrow=none;endFill=0;shadow=0;sketch=0;" edge="1" parent="1" source="5bifRWw4cxV1zEUzVgnK-2" target="5bifRWw4cxV1zEUzVgnK-34">
          <mxGeometry relative="1" as="geometry" />
        </mxCell>
        <mxCell id="5bifRWw4cxV1zEUzVgnK-74" style="edgeStyle=none;rounded=0;sketch=0;orthogonalLoop=1;jettySize=auto;html=1;exitX=1;exitY=1;exitDx=0;exitDy=0;entryX=0.5;entryY=0;entryDx=0;entryDy=0;shadow=0;fontSize=15;endArrow=none;endFill=0;" edge="1" parent="1" source="5bifRWw4cxV1zEUzVgnK-2" target="5bifRWw4cxV1zEUzVgnK-33">
          <mxGeometry relative="1" as="geometry" />
        </mxCell>
        <mxCell id="5bifRWw4cxV1zEUzVgnK-150" style="edgeStyle=none;rounded=0;sketch=0;orthogonalLoop=1;jettySize=auto;html=1;exitX=1;exitY=1;exitDx=0;exitDy=0;entryX=0.5;entryY=0;entryDx=0;entryDy=0;shadow=0;fontFamily=Helvetica;fontSize=15;fontColor=none;endArrow=none;endFill=0;" edge="1" parent="1" source="5bifRWw4cxV1zEUzVgnK-2" target="5bifRWw4cxV1zEUzVgnK-149">
          <mxGeometry relative="1" as="geometry" />
        </mxCell>
        <mxCell id="5bifRWw4cxV1zEUzVgnK-2" value="&lt;span style=&quot;color: rgb(50, 50, 50); font-family: verdana; font-size: 15px; background-color: rgba(255, 255, 255, 0.01);&quot;&gt;d&lt;/span&gt;" style="ellipse;whiteSpace=wrap;html=1;aspect=fixed;fontStyle=0" vertex="1" parent="1">
          <mxGeometry x="10" y="490" width="20" height="20" as="geometry" />
        </mxCell>
        <mxCell id="5bifRWw4cxV1zEUzVgnK-8" style="rounded=0;orthogonalLoop=1;jettySize=auto;html=1;exitX=0.5;exitY=1;exitDx=0;exitDy=0;endArrow=none;endFill=0;" edge="1" parent="1" source="5bifRWw4cxV1zEUzVgnK-3">
          <mxGeometry relative="1" as="geometry">
            <mxPoint x="20" y="410" as="targetPoint" />
          </mxGeometry>
        </mxCell>
        <mxCell id="5bifRWw4cxV1zEUzVgnK-17" style="edgeStyle=none;rounded=0;orthogonalLoop=1;jettySize=auto;html=1;exitX=0.5;exitY=0;exitDx=0;exitDy=0;entryX=0.5;entryY=1;entryDx=0;entryDy=0;endArrow=none;endFill=0;" edge="1" parent="1" source="5bifRWw4cxV1zEUzVgnK-3" target="5bifRWw4cxV1zEUzVgnK-15">
          <mxGeometry relative="1" as="geometry" />
        </mxCell>
        <mxCell id="5bifRWw4cxV1zEUzVgnK-18" style="edgeStyle=none;rounded=0;orthogonalLoop=1;jettySize=auto;html=1;exitX=0.5;exitY=0;exitDx=0;exitDy=0;entryX=0.5;entryY=1;entryDx=0;entryDy=0;endArrow=none;endFill=0;" edge="1" parent="1" source="5bifRWw4cxV1zEUzVgnK-3" target="5bifRWw4cxV1zEUzVgnK-16">
          <mxGeometry relative="1" as="geometry" />
        </mxCell>
        <mxCell id="5bifRWw4cxV1zEUzVgnK-3" value="&lt;span style=&quot;color: rgb(50, 50, 50); font-family: verdana; font-size: 15px; background-color: rgba(255, 255, 255, 0.01);&quot;&gt;Name&lt;/span&gt;" style="ellipse;whiteSpace=wrap;html=1;fontStyle=0" vertex="1" parent="1">
          <mxGeometry x="-110" y="340" width="60" height="30" as="geometry" />
        </mxCell>
        <mxCell id="5bifRWw4cxV1zEUzVgnK-12" style="edgeStyle=none;rounded=0;orthogonalLoop=1;jettySize=auto;html=1;exitX=0.5;exitY=1;exitDx=0;exitDy=0;entryX=0.5;entryY=0;entryDx=0;entryDy=0;endArrow=none;endFill=0;" edge="1" parent="1" source="5bifRWw4cxV1zEUzVgnK-4" target="5bifRWw4cxV1zEUzVgnK-1">
          <mxGeometry relative="1" as="geometry" />
        </mxCell>
        <mxCell id="5bifRWw4cxV1zEUzVgnK-4" value="&lt;span style=&quot;color: rgb(50, 50, 50); font-family: verdana; font-size: 15px; background-color: rgba(255, 255, 255, 0.01);&quot;&gt;StudentId&lt;/span&gt;" style="ellipse;whiteSpace=wrap;html=1;fontStyle=4" vertex="1" parent="1">
          <mxGeometry x="-25" y="335" width="90" height="40" as="geometry" />
        </mxCell>
        <mxCell id="5bifRWw4cxV1zEUzVgnK-22" style="edgeStyle=none;rounded=0;orthogonalLoop=1;jettySize=auto;html=1;exitX=0.5;exitY=1;exitDx=0;exitDy=0;entryX=0.5;entryY=0;entryDx=0;entryDy=0;endArrow=none;endFill=0;" edge="1" parent="1" source="5bifRWw4cxV1zEUzVgnK-5" target="5bifRWw4cxV1zEUzVgnK-6">
          <mxGeometry relative="1" as="geometry" />
        </mxCell>
        <mxCell id="5bifRWw4cxV1zEUzVgnK-5" value="&lt;span style=&quot;color: rgb(50, 50, 50); font-family: verdana; font-size: 15px; background-color: rgba(255, 255, 255, 0.01);&quot;&gt;Semester&lt;/span&gt;" style="ellipse;whiteSpace=wrap;html=1;fontStyle=0" vertex="1" parent="1">
          <mxGeometry x="40" y="275" width="80" height="40" as="geometry" />
        </mxCell>
        <mxCell id="5bifRWw4cxV1zEUzVgnK-10" value="" style="edgeStyle=none;rounded=0;orthogonalLoop=1;jettySize=auto;html=1;endArrow=none;endFill=0;entryX=0.5;entryY=0;entryDx=0;entryDy=0;" edge="1" parent="1" source="5bifRWw4cxV1zEUzVgnK-6" target="5bifRWw4cxV1zEUzVgnK-1">
          <mxGeometry relative="1" as="geometry" />
        </mxCell>
        <mxCell id="5bifRWw4cxV1zEUzVgnK-6" value="&lt;span style=&quot;color: rgb(50, 50, 50); font-family: verdana; font-size: 15px; background-color: rgba(255, 255, 255, 0.01);&quot;&gt;StartSemester&amp;nbsp;&amp;nbsp;&lt;/span&gt;" style="ellipse;whiteSpace=wrap;html=1;fontStyle=0" vertex="1" parent="1">
          <mxGeometry x="70" y="335" width="130" height="40" as="geometry" />
        </mxCell>
        <mxCell id="5bifRWw4cxV1zEUzVgnK-7" value="&lt;span style=&quot;color: rgb(50, 50, 50); font-family: verdana; font-size: 15px; background-color: rgba(255, 255, 255, 0.01);&quot;&gt;Financial Support Type&lt;/span&gt;" style="ellipse;whiteSpace=wrap;html=1;fontStyle=0;verticalAlign=middle;align=center;horizontal=1;" vertex="1" parent="1">
          <mxGeometry x="-260" y="325" width="100" height="60" as="geometry" />
        </mxCell>
        <mxCell id="5bifRWw4cxV1zEUzVgnK-15" value="&lt;span style=&quot;color: rgb(50, 50, 50); font-family: verdana; font-size: 15px; background-color: rgba(255, 255, 255, 0.01);&quot;&gt;FName&lt;/span&gt;" style="ellipse;whiteSpace=wrap;html=1;fontStyle=0" vertex="1" parent="1">
          <mxGeometry x="-160" y="280" width="60" height="30" as="geometry" />
        </mxCell>
        <mxCell id="5bifRWw4cxV1zEUzVgnK-16" value="&lt;span style=&quot;color: rgb(50, 50, 50); font-family: verdana; font-size: 15px; background-color: rgba(255, 255, 255, 0.01);&quot;&gt;LName&lt;/span&gt;" style="ellipse;whiteSpace=wrap;html=1;fontStyle=0" vertex="1" parent="1">
          <mxGeometry x="-80" y="280" width="60" height="30" as="geometry" />
        </mxCell>
        <mxCell id="5bifRWw4cxV1zEUzVgnK-24" style="edgeStyle=none;rounded=0;orthogonalLoop=1;jettySize=auto;html=1;exitX=0.5;exitY=1;exitDx=0;exitDy=0;entryX=0.5;entryY=0;entryDx=0;entryDy=0;endArrow=none;endFill=0;" edge="1" parent="1" source="5bifRWw4cxV1zEUzVgnK-21" target="5bifRWw4cxV1zEUzVgnK-6">
          <mxGeometry relative="1" as="geometry" />
        </mxCell>
        <mxCell id="5bifRWw4cxV1zEUzVgnK-21" value="&lt;span style=&quot;color: rgb(50, 50, 50); font-family: verdana; font-size: 15px; background-color: rgba(255, 255, 255, 0.01);&quot;&gt;Year&lt;/span&gt;" style="ellipse;whiteSpace=wrap;html=1;fontStyle=0" vertex="1" parent="1">
          <mxGeometry x="140" y="275" width="70" height="40" as="geometry" />
        </mxCell>
        <mxCell id="5bifRWw4cxV1zEUzVgnK-30" value="Financial Support Type" style="text;html=1;strokeColor=none;fillColor=none;align=center;verticalAlign=middle;whiteSpace=wrap;rounded=0;fontStyle=0;fontFamily=Helvetica;fontSize=14;" vertex="1" parent="1">
          <mxGeometry x="-70" y="454.5" width="180" height="30" as="geometry" />
        </mxCell>
        <mxCell id="5bifRWw4cxV1zEUzVgnK-31" value="" style="edgeStyle=none;rounded=0;orthogonalLoop=1;jettySize=auto;html=1;entryX=0.5;entryY=1;entryDx=0;entryDy=0;endArrow=none;endFill=0;" edge="1" parent="1" source="5bifRWw4cxV1zEUzVgnK-2" target="5bifRWw4cxV1zEUzVgnK-30">
          <mxGeometry relative="1" as="geometry">
            <mxPoint x="20" y="490" as="sourcePoint" />
            <mxPoint x="20" y="450" as="targetPoint" />
          </mxGeometry>
        </mxCell>
        <mxCell id="5bifRWw4cxV1zEUzVgnK-33" value="&lt;p class=&quot;MsoNormal&quot;&gt;&lt;b&gt;&lt;span style=&quot;font-size: 10.5pt&quot;&gt;GTA&amp;nbsp;&lt;/span&gt;&lt;/b&gt;&lt;/p&gt;" style="rounded=0;whiteSpace=wrap;html=1;fillColor=#ffffff;align=center;fontStyle=0" vertex="1" parent="1">
          <mxGeometry x="60" y="570" width="100" height="40" as="geometry" />
        </mxCell>
        <mxCell id="5bifRWw4cxV1zEUzVgnK-34" value="&lt;p class=&quot;MsoNormal&quot;&gt;&lt;span style=&quot;font-size: 10.5pt&quot;&gt;GRA&amp;nbsp;&lt;/span&gt;&lt;/p&gt;" style="rounded=0;whiteSpace=wrap;html=1;fillColor=#ffffff;align=center;" vertex="1" parent="1">
          <mxGeometry x="-100" y="570" width="80" height="40" as="geometry" />
        </mxCell>
        <mxCell id="5bifRWw4cxV1zEUzVgnK-61" value="&lt;p class=&quot;MsoNormal&quot;&gt;&lt;span&gt;&lt;span style=&quot;font-size: 10.5pt&quot;&gt;GTA&amp;nbsp;&lt;/span&gt;&lt;/span&gt;&lt;/p&gt;" style="text;html=1;strokeColor=none;fillColor=none;align=center;verticalAlign=middle;whiteSpace=wrap;rounded=0;fontSize=15;fontStyle=0" vertex="1" parent="1">
          <mxGeometry x="47" y="530" width="40" height="20" as="geometry" />
        </mxCell>
        <mxCell id="5bifRWw4cxV1zEUzVgnK-75" style="edgeStyle=none;rounded=0;orthogonalLoop=1;jettySize=auto;html=1;exitX=0.5;exitY=0;exitDx=0;exitDy=0;endArrow=none;endFill=0;" edge="1" parent="1" source="5bifRWw4cxV1zEUzVgnK-76" target="5bifRWw4cxV1zEUzVgnK-91">
          <mxGeometry relative="1" as="geometry" />
        </mxCell>
        <mxCell id="5bifRWw4cxV1zEUzVgnK-76" value="&lt;span style=&quot;color: rgb(50, 50, 50); font-family: verdana; font-size: 15px; background-color: rgba(255, 255, 255, 0.01);&quot;&gt;INSTRUCTOR&lt;/span&gt;" style="rounded=0;whiteSpace=wrap;html=1;fontStyle=0" vertex="1" parent="1">
          <mxGeometry x="565" y="434.5" width="130" height="40" as="geometry" />
        </mxCell>
        <mxCell id="5bifRWw4cxV1zEUzVgnK-77" style="edgeStyle=none;rounded=0;orthogonalLoop=1;jettySize=auto;html=1;entryX=0.5;entryY=1;entryDx=0;entryDy=0;endArrow=none;endFill=0;startArrow=none;" edge="1" parent="1" source="5bifRWw4cxV1zEUzVgnK-96" target="5bifRWw4cxV1zEUzVgnK-76">
          <mxGeometry relative="1" as="geometry" />
        </mxCell>
        <mxCell id="5bifRWw4cxV1zEUzVgnK-78" style="edgeStyle=none;rounded=0;orthogonalLoop=1;jettySize=auto;html=1;exitX=0;exitY=1;exitDx=0;exitDy=0;entryX=0.5;entryY=0;entryDx=0;entryDy=0;endArrow=none;endFill=0;shadow=0;sketch=0;" edge="1" parent="1" source="5bifRWw4cxV1zEUzVgnK-80" target="5bifRWw4cxV1zEUzVgnK-99">
          <mxGeometry relative="1" as="geometry" />
        </mxCell>
        <mxCell id="5bifRWw4cxV1zEUzVgnK-79" style="edgeStyle=none;rounded=0;sketch=0;orthogonalLoop=1;jettySize=auto;html=1;exitX=1;exitY=1;exitDx=0;exitDy=0;entryX=0.5;entryY=0;entryDx=0;entryDy=0;shadow=0;fontSize=15;endArrow=none;endFill=0;" edge="1" parent="1" source="5bifRWw4cxV1zEUzVgnK-80" target="5bifRWw4cxV1zEUzVgnK-98">
          <mxGeometry relative="1" as="geometry" />
        </mxCell>
        <mxCell id="5bifRWw4cxV1zEUzVgnK-80" value="&lt;span style=&quot;color: rgb(50, 50, 50); font-family: verdana; font-size: 15px; background-color: rgba(255, 255, 255, 0.01);&quot;&gt;d&lt;/span&gt;" style="ellipse;whiteSpace=wrap;html=1;aspect=fixed;fontStyle=0" vertex="1" parent="1">
          <mxGeometry x="620" y="514.5" width="20" height="20" as="geometry" />
        </mxCell>
        <mxCell id="5bifRWw4cxV1zEUzVgnK-81" style="rounded=0;orthogonalLoop=1;jettySize=auto;html=1;exitX=0.5;exitY=1;exitDx=0;exitDy=0;endArrow=none;endFill=0;" edge="1" parent="1" source="5bifRWw4cxV1zEUzVgnK-84">
          <mxGeometry relative="1" as="geometry">
            <mxPoint x="630" y="434.5" as="targetPoint" />
          </mxGeometry>
        </mxCell>
        <mxCell id="5bifRWw4cxV1zEUzVgnK-82" style="edgeStyle=none;rounded=0;orthogonalLoop=1;jettySize=auto;html=1;exitX=0.5;exitY=0;exitDx=0;exitDy=0;entryX=0.5;entryY=1;entryDx=0;entryDy=0;endArrow=none;endFill=0;" edge="1" parent="1" source="5bifRWw4cxV1zEUzVgnK-84" target="5bifRWw4cxV1zEUzVgnK-92">
          <mxGeometry relative="1" as="geometry" />
        </mxCell>
        <mxCell id="5bifRWw4cxV1zEUzVgnK-83" style="edgeStyle=none;rounded=0;orthogonalLoop=1;jettySize=auto;html=1;exitX=0.5;exitY=0;exitDx=0;exitDy=0;entryX=0.5;entryY=1;entryDx=0;entryDy=0;endArrow=none;endFill=0;" edge="1" parent="1" source="5bifRWw4cxV1zEUzVgnK-84" target="5bifRWw4cxV1zEUzVgnK-93">
          <mxGeometry relative="1" as="geometry" />
        </mxCell>
        <mxCell id="5bifRWw4cxV1zEUzVgnK-84" value="&lt;span style=&quot;color: rgb(50, 50, 50); font-family: verdana; font-size: 15px; background-color: rgba(255, 255, 255, 0.01);&quot;&gt;Name&lt;/span&gt;" style="ellipse;whiteSpace=wrap;html=1;fontStyle=0" vertex="1" parent="1">
          <mxGeometry x="500" y="364.5" width="60" height="30" as="geometry" />
        </mxCell>
        <mxCell id="5bifRWw4cxV1zEUzVgnK-85" style="edgeStyle=none;rounded=0;orthogonalLoop=1;jettySize=auto;html=1;exitX=0.5;exitY=1;exitDx=0;exitDy=0;entryX=0.5;entryY=0;entryDx=0;entryDy=0;endArrow=none;endFill=0;" edge="1" parent="1" source="5bifRWw4cxV1zEUzVgnK-86" target="5bifRWw4cxV1zEUzVgnK-76">
          <mxGeometry relative="1" as="geometry" />
        </mxCell>
        <mxCell id="5bifRWw4cxV1zEUzVgnK-86" value="&lt;span style=&quot;color: rgb(50 , 50 , 50) ; font-family: &amp;#34;verdana&amp;#34; ; font-size: 15px ; background-color: rgba(255 , 255 , 255 , 0.01)&quot;&gt;InstructorID&lt;/span&gt;" style="ellipse;whiteSpace=wrap;html=1;fontStyle=4" vertex="1" parent="1">
          <mxGeometry x="572.5" y="359.5" width="115" height="40" as="geometry" />
        </mxCell>
        <mxCell id="5bifRWw4cxV1zEUzVgnK-87" style="edgeStyle=none;rounded=0;orthogonalLoop=1;jettySize=auto;html=1;exitX=0.5;exitY=1;exitDx=0;exitDy=0;entryX=0.5;entryY=0;entryDx=0;entryDy=0;endArrow=none;endFill=0;" edge="1" parent="1" source="5bifRWw4cxV1zEUzVgnK-88" target="5bifRWw4cxV1zEUzVgnK-90">
          <mxGeometry relative="1" as="geometry" />
        </mxCell>
        <mxCell id="5bifRWw4cxV1zEUzVgnK-88" value="&lt;span style=&quot;color: rgb(50, 50, 50); font-family: verdana; font-size: 15px; background-color: rgba(255, 255, 255, 0.01);&quot;&gt;Semester&lt;/span&gt;" style="ellipse;whiteSpace=wrap;html=1;fontStyle=0" vertex="1" parent="1">
          <mxGeometry x="685" y="299.5" width="80" height="40" as="geometry" />
        </mxCell>
        <mxCell id="5bifRWw4cxV1zEUzVgnK-89" value="" style="edgeStyle=none;rounded=0;orthogonalLoop=1;jettySize=auto;html=1;endArrow=none;endFill=0;entryX=0.5;entryY=0;entryDx=0;entryDy=0;" edge="1" parent="1" source="5bifRWw4cxV1zEUzVgnK-90" target="5bifRWw4cxV1zEUzVgnK-76">
          <mxGeometry relative="1" as="geometry" />
        </mxCell>
        <mxCell id="5bifRWw4cxV1zEUzVgnK-90" value="&lt;span style=&quot;color: rgb(50, 50, 50); font-family: verdana; font-size: 15px; background-color: rgba(255, 255, 255, 0.01);&quot;&gt;StartDate&lt;/span&gt;" style="ellipse;whiteSpace=wrap;html=1;fontStyle=0" vertex="1" parent="1">
          <mxGeometry x="700" y="359.5" width="130" height="40" as="geometry" />
        </mxCell>
        <mxCell id="5bifRWw4cxV1zEUzVgnK-91" value="&lt;span style=&quot;color: rgb(50, 50, 50); font-family: verdana; font-size: 15px; background-color: rgba(255, 255, 255, 0.01);&quot;&gt;Type&lt;/span&gt;" style="ellipse;whiteSpace=wrap;html=1;fontStyle=0" vertex="1" parent="1">
          <mxGeometry x="390" y="362" width="60" height="35" as="geometry" />
        </mxCell>
        <mxCell id="5bifRWw4cxV1zEUzVgnK-92" value="&lt;span style=&quot;color: rgb(50, 50, 50); font-family: verdana; font-size: 15px; background-color: rgba(255, 255, 255, 0.01);&quot;&gt;FName&lt;/span&gt;" style="ellipse;whiteSpace=wrap;html=1;fontStyle=0" vertex="1" parent="1">
          <mxGeometry x="440" y="304.5" width="70" height="35" as="geometry" />
        </mxCell>
        <mxCell id="5bifRWw4cxV1zEUzVgnK-93" value="&lt;span style=&quot;color: rgb(50, 50, 50); font-family: verdana; font-size: 15px; background-color: rgba(255, 255, 255, 0.01);&quot;&gt;LName&lt;/span&gt;" style="ellipse;whiteSpace=wrap;html=1;fontStyle=0" vertex="1" parent="1">
          <mxGeometry x="530" y="304.5" width="70" height="35" as="geometry" />
        </mxCell>
        <mxCell id="5bifRWw4cxV1zEUzVgnK-94" style="edgeStyle=none;rounded=0;orthogonalLoop=1;jettySize=auto;html=1;exitX=0.5;exitY=1;exitDx=0;exitDy=0;entryX=0.5;entryY=0;entryDx=0;entryDy=0;endArrow=none;endFill=0;" edge="1" parent="1" source="5bifRWw4cxV1zEUzVgnK-95" target="5bifRWw4cxV1zEUzVgnK-90">
          <mxGeometry relative="1" as="geometry" />
        </mxCell>
        <mxCell id="5bifRWw4cxV1zEUzVgnK-95" value="&lt;span style=&quot;color: rgb(50, 50, 50); font-family: verdana; font-size: 15px; background-color: rgba(255, 255, 255, 0.01);&quot;&gt;Year&lt;/span&gt;" style="ellipse;whiteSpace=wrap;html=1;fontStyle=0" vertex="1" parent="1">
          <mxGeometry x="780" y="299.5" width="70" height="40" as="geometry" />
        </mxCell>
        <mxCell id="5bifRWw4cxV1zEUzVgnK-96" value="type" style="text;html=1;strokeColor=none;fillColor=none;align=center;verticalAlign=middle;whiteSpace=wrap;rounded=0;fontStyle=0" vertex="1" parent="1">
          <mxGeometry x="560" y="484.5" width="140" height="20" as="geometry" />
        </mxCell>
        <mxCell id="5bifRWw4cxV1zEUzVgnK-97" value="" style="edgeStyle=none;rounded=0;orthogonalLoop=1;jettySize=auto;html=1;entryX=0.5;entryY=1;entryDx=0;entryDy=0;endArrow=none;endFill=0;" edge="1" parent="1" source="5bifRWw4cxV1zEUzVgnK-80" target="5bifRWw4cxV1zEUzVgnK-96">
          <mxGeometry relative="1" as="geometry">
            <mxPoint x="630" y="514.5" as="sourcePoint" />
            <mxPoint x="630" y="474.5" as="targetPoint" />
          </mxGeometry>
        </mxCell>
        <mxCell id="5bifRWw4cxV1zEUzVgnK-106" style="edgeStyle=none;rounded=0;sketch=0;orthogonalLoop=1;jettySize=auto;html=1;exitX=0.5;exitY=1;exitDx=0;exitDy=0;entryX=0.5;entryY=0;entryDx=0;entryDy=0;shadow=0;fontSize=15;endArrow=none;endFill=0;shape=link;" edge="1" parent="1" source="5bifRWw4cxV1zEUzVgnK-98" target="5bifRWw4cxV1zEUzVgnK-105">
          <mxGeometry relative="1" as="geometry" />
        </mxCell>
        <mxCell id="5bifRWw4cxV1zEUzVgnK-98" value="&lt;span style=&quot;color: rgb(50, 50, 50); font-family: verdana; font-size: 15px; background-color: rgba(255, 255, 255, 0.01);&quot;&gt;FULL_TIME INSTRUCTOR&lt;/span&gt;" style="rounded=0;whiteSpace=wrap;html=1;fillColor=#ffffff;align=center;fontStyle=0" vertex="1" parent="1">
          <mxGeometry x="650" y="594.5" width="120" height="60" as="geometry" />
        </mxCell>
        <mxCell id="5bifRWw4cxV1zEUzVgnK-99" value="&lt;span style=&quot;color: rgb(50, 50, 50); font-size: 15px; background-color: rgba(255, 255, 255, 0.01);&quot;&gt;ADJUNCT&amp;nbsp; INSTRUCTOR&lt;/span&gt;" style="rounded=0;whiteSpace=wrap;html=1;fillColor=#ffffff;fontFamily=Helvetica;" vertex="1" parent="1">
          <mxGeometry x="480" y="594.5" width="120" height="60" as="geometry" />
        </mxCell>
        <mxCell id="5bifRWw4cxV1zEUzVgnK-100" value="&lt;span style=&quot;color: rgb(50 , 50 , 50) ; font-size: 13px ; background-color: rgba(255 , 255 , 255 , 0.01)&quot;&gt;ADJUNCT&amp;nbsp;&lt;/span&gt;" style="text;html=1;strokeColor=none;fillColor=none;align=center;verticalAlign=middle;whiteSpace=wrap;rounded=0;fontSize=15;" vertex="1" parent="1">
          <mxGeometry x="560" y="554.5" width="40" height="20" as="geometry" />
        </mxCell>
        <mxCell id="5bifRWw4cxV1zEUzVgnK-101" value="&lt;span style=&quot;color: rgb(50 , 50 , 50) ; font-size: 13px ; background-color: rgba(255 , 255 , 255 , 0.01)&quot;&gt;FULL_TIME&lt;/span&gt;" style="text;html=1;strokeColor=none;fillColor=none;align=center;verticalAlign=middle;whiteSpace=wrap;rounded=0;fontSize=15;" vertex="1" parent="1">
          <mxGeometry x="657" y="554.5" width="40" height="20" as="geometry" />
        </mxCell>
        <mxCell id="5bifRWw4cxV1zEUzVgnK-103" style="edgeStyle=none;rounded=0;sketch=0;orthogonalLoop=1;jettySize=auto;html=1;exitX=0.5;exitY=1;exitDx=0;exitDy=0;entryX=0.5;entryY=0;entryDx=0;entryDy=0;shadow=0;fontSize=15;endArrow=none;endFill=0;" edge="1" parent="1" source="5bifRWw4cxV1zEUzVgnK-102" target="5bifRWw4cxV1zEUzVgnK-76">
          <mxGeometry relative="1" as="geometry" />
        </mxCell>
        <mxCell id="5bifRWw4cxV1zEUzVgnK-102" value="&lt;span style=&quot;color: rgb(50, 50, 50); font-family: verdana; font-size: 15px; background-color: rgba(255, 255, 255, 0.01);&quot;&gt;Rank&lt;/span&gt;" style="ellipse;whiteSpace=wrap;html=1;fontStyle=0" vertex="1" parent="1">
          <mxGeometry x="850" y="362" width="60" height="35" as="geometry" />
        </mxCell>
        <mxCell id="5bifRWw4cxV1zEUzVgnK-109" style="edgeStyle=none;rounded=0;sketch=0;orthogonalLoop=1;jettySize=auto;html=1;exitX=0;exitY=1;exitDx=0;exitDy=0;entryX=0.5;entryY=0;entryDx=0;entryDy=0;shadow=0;fontSize=15;endArrow=none;endFill=0;" edge="1" parent="1" source="5bifRWw4cxV1zEUzVgnK-105" target="5bifRWw4cxV1zEUzVgnK-107">
          <mxGeometry relative="1" as="geometry" />
        </mxCell>
        <mxCell id="5bifRWw4cxV1zEUzVgnK-110" style="edgeStyle=none;rounded=0;sketch=0;orthogonalLoop=1;jettySize=auto;html=1;exitX=1;exitY=1;exitDx=0;exitDy=0;entryX=0.5;entryY=0;entryDx=0;entryDy=0;shadow=0;fontSize=15;endArrow=none;endFill=0;" edge="1" parent="1" source="5bifRWw4cxV1zEUzVgnK-105" target="5bifRWw4cxV1zEUzVgnK-108">
          <mxGeometry relative="1" as="geometry" />
        </mxCell>
        <mxCell id="5bifRWw4cxV1zEUzVgnK-105" value="&lt;font color=&quot;#323232&quot; face=&quot;verdana&quot;&gt;&lt;span style=&quot;background-color: rgba(255 , 255 , 255 , 0.01)&quot;&gt;o&lt;/span&gt;&lt;/font&gt;" style="ellipse;whiteSpace=wrap;html=1;aspect=fixed;fontSize=15;fillColor=#ffffff;align=center;verticalAlign=middle;" vertex="1" parent="1">
          <mxGeometry x="700" y="689.5" width="20" height="20" as="geometry" />
        </mxCell>
        <mxCell id="5bifRWw4cxV1zEUzVgnK-112" style="edgeStyle=none;rounded=0;sketch=0;orthogonalLoop=1;jettySize=auto;html=1;exitX=0.5;exitY=1;exitDx=0;exitDy=0;entryX=0.5;entryY=0;entryDx=0;entryDy=0;shadow=0;fontSize=15;endArrow=none;endFill=0;" edge="1" parent="1" source="5bifRWw4cxV1zEUzVgnK-107" target="5bifRWw4cxV1zEUzVgnK-111">
          <mxGeometry relative="1" as="geometry" />
        </mxCell>
        <mxCell id="5bifRWw4cxV1zEUzVgnK-107" value="&lt;span style=&quot;color: rgb(50, 50, 50); font-family: verdana; background-color: rgba(255, 255, 255, 0.01);&quot;&gt;TT&lt;/span&gt;" style="rounded=0;whiteSpace=wrap;html=1;fontSize=15;fillColor=#ffffff;align=center;verticalAlign=middle;fontStyle=0" vertex="1" parent="1">
          <mxGeometry x="630" y="749.5" width="55" height="40" as="geometry" />
        </mxCell>
        <mxCell id="5bifRWw4cxV1zEUzVgnK-114" style="edgeStyle=none;rounded=0;sketch=0;orthogonalLoop=1;jettySize=auto;html=1;exitX=0.5;exitY=1;exitDx=0;exitDy=0;entryX=0.5;entryY=0;entryDx=0;entryDy=0;shadow=0;fontSize=15;endArrow=none;endFill=0;" edge="1" parent="1" source="5bifRWw4cxV1zEUzVgnK-108" target="5bifRWw4cxV1zEUzVgnK-113">
          <mxGeometry relative="1" as="geometry" />
        </mxCell>
        <mxCell id="5bifRWw4cxV1zEUzVgnK-108" value="&lt;span style=&quot;color: rgb(50, 50, 50); font-family: verdana; background-color: rgba(255, 255, 255, 0.01);&quot;&gt;NTT&lt;/span&gt;" style="rounded=0;whiteSpace=wrap;html=1;fontSize=15;fillColor=#ffffff;align=center;verticalAlign=middle;fontStyle=0" vertex="1" parent="1">
          <mxGeometry x="730" y="749.5" width="60" height="40" as="geometry" />
        </mxCell>
        <mxCell id="5bifRWw4cxV1zEUzVgnK-111" value="&lt;span style=&quot;color: rgb(50, 50, 50); font-family: verdana; background-color: rgba(255, 255, 255, 0.01);&quot;&gt;NoOfPhDSupervised&amp;nbsp;&amp;nbsp;&lt;/span&gt;" style="ellipse;whiteSpace=wrap;html=1;fontSize=15;fillColor=#ffffff;align=center;verticalAlign=middle;fontStyle=0" vertex="1" parent="1">
          <mxGeometry x="540" y="839.5" width="180" height="50" as="geometry" />
        </mxCell>
        <mxCell id="5bifRWw4cxV1zEUzVgnK-113" value="&lt;span style=&quot;color: rgb(50, 50, 50); font-family: verdana; background-color: rgba(255, 255, 255, 0.01);&quot;&gt;CoursesTaught&lt;/span&gt;" style="ellipse;whiteSpace=wrap;html=1;fontSize=15;fillColor=#ffffff;align=center;verticalAlign=middle;fontStyle=0" vertex="1" parent="1">
          <mxGeometry x="730" y="839.5" width="180" height="50" as="geometry" />
        </mxCell>
        <mxCell id="5bifRWw4cxV1zEUzVgnK-117" value="&lt;span style=&quot;color: rgb(50 , 50 , 50) ; font-size: 13px ; background-color: rgba(255 , 255 , 255 , 0.01)&quot;&gt;ADJUNCT&amp;nbsp;&lt;/span&gt;" style="text;html=1;strokeColor=none;fillColor=none;align=center;verticalAlign=middle;whiteSpace=wrap;rounded=0;fontSize=15;" vertex="1" parent="1">
          <mxGeometry x="620" y="809.5" width="40" height="20" as="geometry" />
        </mxCell>
        <mxCell id="5bifRWw4cxV1zEUzVgnK-118" value="&lt;span style=&quot;color: rgb(50 , 50 , 50) ; font-size: 13px ; background-color: rgba(255 , 255 , 255 , 0.01)&quot;&gt;FULL_TIME&lt;/span&gt;" style="text;html=1;strokeColor=none;fillColor=none;align=center;verticalAlign=middle;whiteSpace=wrap;rounded=0;fontSize=15;" vertex="1" parent="1">
          <mxGeometry x="780" y="809.5" width="40" height="20" as="geometry" />
        </mxCell>
        <mxCell id="5bifRWw4cxV1zEUzVgnK-173" style="edgeStyle=none;rounded=0;sketch=0;orthogonalLoop=1;jettySize=auto;html=1;exitX=0.5;exitY=1;exitDx=0;exitDy=0;shadow=0;fontFamily=Helvetica;fontSize=14;fontColor=none;endArrow=none;endFill=0;" edge="1" parent="1" source="5bifRWw4cxV1zEUzVgnK-119" target="5bifRWw4cxV1zEUzVgnK-160">
          <mxGeometry relative="1" as="geometry" />
        </mxCell>
        <mxCell id="5bifRWw4cxV1zEUzVgnK-174" style="edgeStyle=none;rounded=0;sketch=0;orthogonalLoop=1;jettySize=auto;html=1;exitX=0.5;exitY=1;exitDx=0;exitDy=0;shadow=0;fontFamily=Helvetica;fontSize=14;fontColor=none;endArrow=none;endFill=0;" edge="1" parent="1" source="5bifRWw4cxV1zEUzVgnK-119" target="5bifRWw4cxV1zEUzVgnK-155">
          <mxGeometry relative="1" as="geometry" />
        </mxCell>
        <mxCell id="5bifRWw4cxV1zEUzVgnK-175" style="edgeStyle=none;rounded=0;sketch=0;orthogonalLoop=1;jettySize=auto;html=1;exitX=0.5;exitY=0;exitDx=0;exitDy=0;entryX=1;entryY=1;entryDx=0;entryDy=0;shadow=0;fontFamily=Helvetica;fontSize=14;fontColor=none;endArrow=none;endFill=0;" edge="1" parent="1" source="5bifRWw4cxV1zEUzVgnK-119" target="5bifRWw4cxV1zEUzVgnK-172">
          <mxGeometry relative="1" as="geometry" />
        </mxCell>
        <mxCell id="5bifRWw4cxV1zEUzVgnK-119" value="&lt;p class=&quot;MsoNormal&quot;&gt;&lt;span&gt;&lt;span style=&quot;font-size: 10.5pt&quot;&gt;GRANT&lt;/span&gt;&lt;/span&gt;&lt;/p&gt;" style="rounded=0;whiteSpace=wrap;html=1;fontStyle=0" vertex="1" parent="1">
          <mxGeometry x="40" y="780" width="130" height="40" as="geometry" />
        </mxCell>
        <mxCell id="5bifRWw4cxV1zEUzVgnK-121" value="&lt;p class=&quot;MsoNormal&quot;&gt;&lt;span style=&quot;font-size: 10.5pt&quot;&gt;MILESTONE&lt;/span&gt;&lt;/p&gt;" style="rounded=0;whiteSpace=wrap;html=1;fontSize=15;fillColor=#ffffff;align=center;verticalAlign=middle;" vertex="1" parent="1">
          <mxGeometry x="250" y="1004.5" width="120" height="60" as="geometry" />
        </mxCell>
        <mxCell id="5bifRWw4cxV1zEUzVgnK-124" value="&lt;p class=&quot;MsoNormal&quot;&gt;&lt;span style=&quot;font-size: 10.5pt&quot;&gt;SECTION&lt;/span&gt;&lt;span style=&quot;font-size: 10.5pt&quot;&gt;&amp;nbsp;&lt;/span&gt;&lt;/p&gt;" style="rounded=0;whiteSpace=wrap;html=1;fontFamily=Helvetica;fontSize=15;fillColor=#ffffff;align=center;verticalAlign=middle;" vertex="1" parent="1">
          <mxGeometry x="-565" y="1200.5" width="120" height="60" as="geometry" />
        </mxCell>
        <mxCell id="5bifRWw4cxV1zEUzVgnK-126" style="edgeStyle=none;rounded=0;sketch=0;orthogonalLoop=1;jettySize=auto;html=1;exitX=0.5;exitY=1;exitDx=0;exitDy=0;entryX=0.5;entryY=0;entryDx=0;entryDy=0;shadow=0;fontFamily=Helvetica;fontSize=15;endArrow=none;endFill=0;" edge="1" parent="1" source="5bifRWw4cxV1zEUzVgnK-125" target="5bifRWw4cxV1zEUzVgnK-76">
          <mxGeometry relative="1" as="geometry" />
        </mxCell>
        <mxCell id="5bifRWw4cxV1zEUzVgnK-125" value="&lt;p class=&quot;MsoNormal&quot;&gt;&lt;span style=&quot;font-size: 10.5pt&quot;&gt;Degree&amp;nbsp;&lt;/span&gt;&lt;/p&gt;" style="ellipse;whiteSpace=wrap;html=1;fontStyle=0" vertex="1" parent="1">
          <mxGeometry x="310" y="362" width="60" height="35" as="geometry" />
        </mxCell>
        <mxCell id="5bifRWw4cxV1zEUzVgnK-131" style="edgeStyle=none;rounded=0;sketch=0;orthogonalLoop=1;jettySize=auto;html=1;exitX=0.5;exitY=1;exitDx=0;exitDy=0;entryX=0.5;entryY=0;entryDx=0;entryDy=0;shadow=0;fontFamily=Helvetica;fontSize=15;fontColor=none;endArrow=none;endFill=0;" edge="1" parent="1" source="5bifRWw4cxV1zEUzVgnK-127" target="5bifRWw4cxV1zEUzVgnK-124">
          <mxGeometry relative="1" as="geometry" />
        </mxCell>
        <mxCell id="5bifRWw4cxV1zEUzVgnK-127" value="&lt;p class=&quot;MsoNormal&quot;&gt;&lt;span&gt;&lt;span&gt;&lt;span style=&quot;font-size: 10.5pt;&quot;&gt;sections_of&amp;nbsp;&lt;/span&gt;&lt;/span&gt;&lt;/span&gt;&lt;/p&gt;" style="shape=rhombus;perimeter=rhombusPerimeter;whiteSpace=wrap;html=1;align=center;fontFamily=Helvetica;fontSize=15;fontColor=none;fillColor=#ffffff;fontStyle=0" vertex="1" parent="1">
          <mxGeometry x="-565" y="1094.5" width="120" height="60" as="geometry" />
        </mxCell>
        <mxCell id="5bifRWw4cxV1zEUzVgnK-129" style="edgeStyle=none;rounded=0;sketch=0;orthogonalLoop=1;jettySize=auto;html=1;exitX=1;exitY=0;exitDx=0;exitDy=0;shadow=0;fontFamily=Helvetica;fontSize=15;fontColor=none;endArrow=none;endFill=0;" edge="1" parent="1" source="5bifRWw4cxV1zEUzVgnK-127" target="5bifRWw4cxV1zEUzVgnK-127">
          <mxGeometry relative="1" as="geometry" />
        </mxCell>
        <mxCell id="5bifRWw4cxV1zEUzVgnK-143" style="edgeStyle=none;rounded=0;sketch=0;orthogonalLoop=1;jettySize=auto;html=1;exitX=0.5;exitY=1;exitDx=0;exitDy=0;entryX=0.5;entryY=0;entryDx=0;entryDy=0;shadow=0;fontFamily=Helvetica;fontSize=15;fontColor=none;endArrow=none;endFill=0;" edge="1" parent="1" source="5bifRWw4cxV1zEUzVgnK-132" target="5bifRWw4cxV1zEUzVgnK-127">
          <mxGeometry relative="1" as="geometry" />
        </mxCell>
        <mxCell id="5bifRWw4cxV1zEUzVgnK-132" value="&lt;p class=&quot;MsoNormal&quot;&gt;&lt;span style=&quot;font-size: 14px&quot;&gt;COURSE&lt;/span&gt;&lt;/p&gt;" style="rounded=0;whiteSpace=wrap;html=1;fontSize=15;fillColor=#ffffff;align=center;verticalAlign=middle;" vertex="1" parent="1">
          <mxGeometry x="-565" y="982.5" width="120" height="60" as="geometry" />
        </mxCell>
        <mxCell id="5bifRWw4cxV1zEUzVgnK-142" value="N" style="text;html=1;resizable=0;autosize=1;align=center;verticalAlign=middle;points=[];fillColor=none;strokeColor=none;rounded=0;fontFamily=Helvetica;fontSize=15;fontColor=none;" vertex="1" parent="1">
          <mxGeometry x="-510" y="1169.5" width="30" height="20" as="geometry" />
        </mxCell>
        <mxCell id="5bifRWw4cxV1zEUzVgnK-144" value="1" style="text;html=1;resizable=0;autosize=1;align=center;verticalAlign=middle;points=[];fillColor=none;strokeColor=none;rounded=0;fontFamily=Helvetica;fontSize=15;fontColor=none;" vertex="1" parent="1">
          <mxGeometry x="-505" y="1064.5" width="20" height="20" as="geometry" />
        </mxCell>
        <mxCell id="5bifRWw4cxV1zEUzVgnK-146" value="&lt;p class=&quot;MsoNormal&quot;&gt;&lt;span&gt;&lt;span style=&quot;font-size: 10.5pt&quot;&gt;GRA&amp;nbsp;&lt;/span&gt;&lt;/span&gt;&lt;/p&gt;" style="text;html=1;resizable=0;autosize=1;align=center;verticalAlign=middle;points=[];fillColor=none;strokeColor=none;rounded=0;fontFamily=Helvetica;fontSize=15;fontColor=none;fontStyle=0" vertex="1" parent="1">
          <mxGeometry x="-50" y="515" width="50" height="50" as="geometry" />
        </mxCell>
        <mxCell id="5bifRWw4cxV1zEUzVgnK-148" style="edgeStyle=none;rounded=0;sketch=0;orthogonalLoop=1;jettySize=auto;html=1;exitX=0.5;exitY=0;exitDx=0;exitDy=0;entryX=0;entryY=1;entryDx=0;entryDy=0;shadow=0;fontFamily=Helvetica;fontSize=15;fontColor=none;endArrow=none;endFill=0;" edge="1" parent="1" source="5bifRWw4cxV1zEUzVgnK-147" target="5bifRWw4cxV1zEUzVgnK-2">
          <mxGeometry relative="1" as="geometry" />
        </mxCell>
        <mxCell id="5bifRWw4cxV1zEUzVgnK-147" value="&lt;p class=&quot;MsoNormal&quot;&gt;&lt;span style=&quot;font-size: 10.5pt&quot;&gt;SCOLARSHIP_SUPPORT PHD&amp;nbsp;&lt;/span&gt;&lt;/p&gt;" style="rounded=0;whiteSpace=wrap;html=1;fontFamily=Helvetica;fontSize=15;fontColor=none;fillColor=#ffffff;align=center;verticalAlign=middle;" vertex="1" parent="1">
          <mxGeometry x="-320" y="568.75" width="190" height="42.5" as="geometry" />
        </mxCell>
        <mxCell id="5bifRWw4cxV1zEUzVgnK-149" value="&lt;p class=&quot;MsoNormal&quot;&gt;&lt;span style=&quot;font-size: 10.5pt&quot;&gt;SELF_SUPPORT&lt;/span&gt;&lt;span style=&quot;font-size: 10.5pt&quot;&gt;&amp;nbsp;PHD&amp;nbsp;&lt;/span&gt;&lt;/p&gt;" style="rounded=0;whiteSpace=wrap;html=1;fontFamily=Helvetica;fontSize=15;fontColor=none;fillColor=#ffffff;align=center;verticalAlign=middle;" vertex="1" parent="1">
          <mxGeometry x="190" y="568.75" width="190" height="42.5" as="geometry" />
        </mxCell>
        <mxCell id="5bifRWw4cxV1zEUzVgnK-151" value="&lt;p class=&quot;MsoNormal&quot;&gt;&lt;span&gt;&lt;span style=&quot;font-size: 10.5pt;&quot;&gt;SCOLARSHIP_SUPPORT&lt;/span&gt;&lt;/span&gt;&lt;/p&gt;" style="text;html=1;resizable=0;autosize=1;align=center;verticalAlign=middle;points=[];fillColor=none;strokeColor=none;rounded=0;fontFamily=Helvetica;fontSize=15;fontColor=none;fontStyle=0" vertex="1" parent="1">
          <mxGeometry x="-240" y="518.75" width="180" height="50" as="geometry" />
        </mxCell>
        <mxCell id="5bifRWw4cxV1zEUzVgnK-153" value="&lt;p class=&quot;MsoNormal&quot;&gt;&lt;span&gt;&lt;span style=&quot;font-size: 10.5pt;&quot;&gt;SELF_SUPPORT&amp;nbsp;&lt;/span&gt;&lt;/span&gt;&lt;/p&gt;" style="text;html=1;resizable=0;autosize=1;align=center;verticalAlign=middle;points=[];fillColor=none;strokeColor=none;rounded=0;fontFamily=Helvetica;fontSize=15;fontColor=none;fontStyle=0" vertex="1" parent="1">
          <mxGeometry x="125" y="518.75" width="100" height="50" as="geometry" />
        </mxCell>
        <mxCell id="5bifRWw4cxV1zEUzVgnK-167" style="edgeStyle=none;rounded=0;sketch=0;orthogonalLoop=1;jettySize=auto;html=1;entryX=0.5;entryY=1;entryDx=0;entryDy=0;shadow=0;fontFamily=Helvetica;fontSize=14;fontColor=none;endArrow=none;endFill=0;" edge="1" parent="1" source="5bifRWw4cxV1zEUzVgnK-154" target="5bifRWw4cxV1zEUzVgnK-119">
          <mxGeometry relative="1" as="geometry" />
        </mxCell>
        <mxCell id="5bifRWw4cxV1zEUzVgnK-154" value="&lt;p class=&quot;MsoNormal&quot;&gt;&lt;span style=&quot;font-size: 10.5pt&quot;&gt;GrantTitle&lt;/span&gt;&lt;/p&gt;" style="ellipse;whiteSpace=wrap;html=1;align=center;fontFamily=Helvetica;fontSize=14;fontColor=none;fillColor=#ffffff;" vertex="1" parent="1">
          <mxGeometry x="-110" y="869.5" width="100" height="40" as="geometry" />
        </mxCell>
        <mxCell id="5bifRWw4cxV1zEUzVgnK-155" value="&lt;p class=&quot;MsoNormal&quot;&gt;&lt;span style=&quot;font-family: &amp;quot;calibri&amp;quot; ; font-size: 10.5000pt&quot;&gt;AccountNo&amp;nbsp;&lt;/span&gt;&lt;/p&gt;" style="ellipse;whiteSpace=wrap;html=1;align=center;fontFamily=Helvetica;fontSize=14;fontColor=none;fillColor=#ffffff;fontStyle=4" vertex="1" parent="1">
          <mxGeometry x="115" y="869.5" width="100" height="40" as="geometry" />
        </mxCell>
        <mxCell id="5bifRWw4cxV1zEUzVgnK-166" style="edgeStyle=none;rounded=0;sketch=0;orthogonalLoop=1;jettySize=auto;html=1;exitX=0.5;exitY=1;exitDx=0;exitDy=0;entryX=0.5;entryY=1;entryDx=0;entryDy=0;shadow=0;fontFamily=Helvetica;fontSize=14;fontColor=none;endArrow=none;endFill=0;" edge="1" parent="1" source="5bifRWw4cxV1zEUzVgnK-156" target="5bifRWw4cxV1zEUzVgnK-119">
          <mxGeometry relative="1" as="geometry" />
        </mxCell>
        <mxCell id="5bifRWw4cxV1zEUzVgnK-156" value="&lt;p class=&quot;MsoNormal&quot;&gt;&lt;span style=&quot;font-size: 10.5pt&quot;&gt;Source&amp;nbsp;&lt;/span&gt;&lt;/p&gt;" style="ellipse;whiteSpace=wrap;html=1;align=center;fontFamily=Helvetica;fontSize=14;fontColor=none;fillColor=#ffffff;" vertex="1" parent="1">
          <mxGeometry x="250" y="869.5" width="100" height="40" as="geometry" />
        </mxCell>
        <mxCell id="5bifRWw4cxV1zEUzVgnK-168" style="edgeStyle=none;rounded=0;sketch=0;orthogonalLoop=1;jettySize=auto;html=1;exitX=1;exitY=0.5;exitDx=0;exitDy=0;entryX=0;entryY=0.5;entryDx=0;entryDy=0;shadow=0;fontFamily=Helvetica;fontSize=14;fontColor=none;endArrow=none;endFill=0;" edge="1" parent="1" source="5bifRWw4cxV1zEUzVgnK-157" target="5bifRWw4cxV1zEUzVgnK-119">
          <mxGeometry relative="1" as="geometry" />
        </mxCell>
        <mxCell id="5bifRWw4cxV1zEUzVgnK-157" value="&lt;p class=&quot;MsoNormal&quot;&gt;&lt;span style=&quot;font-family: &amp;#34;calibri&amp;#34; ; font-size: 10.5000pt&quot;&gt;Type&amp;nbsp;&lt;/span&gt;&lt;/p&gt;" style="ellipse;whiteSpace=wrap;html=1;align=center;fontFamily=Helvetica;fontSize=14;fontColor=none;fillColor=#ffffff;" vertex="1" parent="1">
          <mxGeometry x="-120" y="780" width="100" height="40" as="geometry" />
        </mxCell>
        <mxCell id="5bifRWw4cxV1zEUzVgnK-169" style="edgeStyle=none;rounded=0;sketch=0;orthogonalLoop=1;jettySize=auto;html=1;exitX=1;exitY=0;exitDx=0;exitDy=0;entryX=0;entryY=0.5;entryDx=0;entryDy=0;shadow=0;fontFamily=Helvetica;fontSize=14;fontColor=none;endArrow=none;endFill=0;" edge="1" parent="1" source="5bifRWw4cxV1zEUzVgnK-158" target="5bifRWw4cxV1zEUzVgnK-119">
          <mxGeometry relative="1" as="geometry" />
        </mxCell>
        <mxCell id="5bifRWw4cxV1zEUzVgnK-158" value="&lt;p class=&quot;MsoNormal&quot;&gt;&lt;span style=&quot;font-family: &amp;#34;calibri&amp;#34; ; font-size: 10.5000pt&quot;&gt;EndDate&lt;/span&gt;&lt;/p&gt;" style="ellipse;whiteSpace=wrap;html=1;align=center;fontFamily=Helvetica;fontSize=14;fontColor=none;fillColor=#ffffff;" vertex="1" parent="1">
          <mxGeometry x="-120" y="829.5" width="100" height="40" as="geometry" />
        </mxCell>
        <mxCell id="5bifRWw4cxV1zEUzVgnK-171" style="edgeStyle=none;rounded=0;sketch=0;orthogonalLoop=1;jettySize=auto;html=1;exitX=0;exitY=0.5;exitDx=0;exitDy=0;entryX=1;entryY=0.5;entryDx=0;entryDy=0;shadow=0;fontFamily=Helvetica;fontSize=14;fontColor=none;endArrow=none;endFill=0;" edge="1" parent="1" source="5bifRWw4cxV1zEUzVgnK-159" target="5bifRWw4cxV1zEUzVgnK-119">
          <mxGeometry relative="1" as="geometry" />
        </mxCell>
        <mxCell id="5bifRWw4cxV1zEUzVgnK-159" value="&lt;p class=&quot;MsoNormal&quot;&gt;&lt;span style=&quot;font-family: &amp;#34;calibri&amp;#34; ; font-size: 10.5000pt&quot;&gt;StartDate&lt;/span&gt;&lt;/p&gt;" style="ellipse;whiteSpace=wrap;html=1;align=center;fontFamily=Helvetica;fontSize=14;fontColor=none;fillColor=#ffffff;" vertex="1" parent="1">
          <mxGeometry x="242.5" y="769.5" width="100" height="40" as="geometry" />
        </mxCell>
        <mxCell id="5bifRWw4cxV1zEUzVgnK-160" value="&lt;p class=&quot;MsoNormal&quot;&gt;&lt;span style=&quot;font-family: &amp;#34;calibri&amp;#34; ; font-size: 10.5000pt&quot;&gt;StartAmount&lt;/span&gt;&lt;/p&gt;" style="ellipse;whiteSpace=wrap;html=1;align=center;fontFamily=Helvetica;fontSize=14;fontColor=none;fillColor=#ffffff;" vertex="1" parent="1">
          <mxGeometry x="5" y="869.5" width="100" height="40" as="geometry" />
        </mxCell>
        <mxCell id="5bifRWw4cxV1zEUzVgnK-170" style="edgeStyle=none;rounded=0;sketch=0;orthogonalLoop=1;jettySize=auto;html=1;exitX=0;exitY=0;exitDx=0;exitDy=0;entryX=1;entryY=0.5;entryDx=0;entryDy=0;shadow=0;fontFamily=Helvetica;fontSize=14;fontColor=none;endArrow=none;endFill=0;" edge="1" parent="1" source="5bifRWw4cxV1zEUzVgnK-162" target="5bifRWw4cxV1zEUzVgnK-119">
          <mxGeometry relative="1" as="geometry" />
        </mxCell>
        <mxCell id="5bifRWw4cxV1zEUzVgnK-162" value="&lt;p class=&quot;MsoNormal&quot;&gt;&lt;span style=&quot;font-size: 10.5pt;&quot;&gt;CurrBalance&lt;/span&gt;&lt;/p&gt;" style="ellipse;whiteSpace=wrap;html=1;align=center;fontFamily=Helvetica;fontSize=14;fontColor=none;fillColor=#ffffff;" vertex="1" parent="1">
          <mxGeometry x="240" y="820" width="105" height="40" as="geometry" />
        </mxCell>
        <mxCell id="5bifRWw4cxV1zEUzVgnK-178" style="edgeStyle=none;rounded=0;sketch=0;orthogonalLoop=1;jettySize=auto;html=1;entryX=0.5;entryY=1;entryDx=0;entryDy=0;shadow=0;fontFamily=Helvetica;fontSize=14;fontColor=none;endArrow=none;endFill=0;" edge="1" parent="1" target="5bifRWw4cxV1zEUzVgnK-34">
          <mxGeometry relative="1" as="geometry">
            <mxPoint x="5" y="675" as="sourcePoint" />
          </mxGeometry>
        </mxCell>
        <mxCell id="5bifRWw4cxV1zEUzVgnK-172" value="&lt;p class=&quot;MsoNormal&quot;&gt;&lt;span style=&quot;font-size: 10.5pt&quot;&gt;funding&amp;nbsp;&lt;/span&gt;&lt;/p&gt;" style="shape=rhombus;perimeter=rhombusPerimeter;whiteSpace=wrap;html=1;align=center;fontFamily=Helvetica;fontSize=14;fontColor=none;fillColor=#ffffff;" vertex="1" parent="1">
          <mxGeometry x="-55" y="669.5" width="120" height="60" as="geometry" />
        </mxCell>
        <mxCell id="5bifRWw4cxV1zEUzVgnK-184" value="&lt;p class=&quot;MsoNormal&quot;&gt;&lt;span style=&quot;font-size: 10.5pt&quot;&gt;Funding&lt;/span&gt;&lt;/p&gt;&lt;p class=&quot;MsoNormal&quot;&gt;&lt;span style=&quot;font-size: 10.5pt&quot;&gt;Source&lt;/span&gt;&lt;/p&gt;" style="ellipse;whiteSpace=wrap;html=1;fontStyle=0;verticalAlign=middle;fontFamily=Helvetica;align=center;" vertex="1" parent="1">
          <mxGeometry x="-360" y="335" width="80" height="45" as="geometry" />
        </mxCell>
      </root>
    </mxGraphModel>
  </diagram>
</mxfile>
